<svg xmlns="http://www.w3.org/2000/svg" viewBox="0 0 1200 640" fill="none" role="img" aria-labelledby="title desc">
  <title id="title">VOCO README header</title>
  <desc id="desc">Minimal VOCO banner with a microphone mark and concise Linux dictation branding.</desc>

  <rect width="1200" height="640" rx="40" fill="#0B0C12"/>
  <rect x="1" y="1" width="1198" height="638" rx="39" stroke="#23263A"/>

  <ellipse cx="240" cy="164" rx="160" ry="120" fill="#6C4CF5" opacity="0.14"/>
  <ellipse cx="240" cy="164" rx="92" ry="72" fill="#9B8BFF" opacity="0.08"/>

  <g transform="translate(86 116)">
    <rect x="0" y="0" width="96" height="96" rx="28" fill="#10131D"/>
    <rect x="1" y="1" width="94" height="94" rx="27" stroke="#2B2F46"/>
    <circle cx="48" cy="48" r="31" fill="url(#orb)"/>
    <circle cx="48" cy="48" r="30.5" stroke="#ECE8FF" stroke-opacity="0.42"/>
    <rect x="39" y="23" width="18" height="28" rx="9" fill="#FFFFFF" fill-opacity="0.92"/>
    <path d="M31 45C31 55.4934 38.6112 64 48 64C57.3888 64 65 55.4934 65 45" stroke="#FFFFFF" stroke-width="4.5" stroke-linecap="round" stroke-opacity="0.92"/>
    <rect x="45" y="51" width="6" height="13" rx="3" fill="#FFFFFF" fill-opacity="0.9"/>
    <rect x="36" y="73" width="24" height="4" rx="2" fill="#FFFFFF" fill-opacity="0.82"/>
  </g>

  <g transform="translate(246 158)" font-family="system-ui, -apple-system, BlinkMacSystemFont, 'Segoe UI', sans-serif">
    <text x="0" y="42" font-size="26" letter-spacing="8" fill="#A89DD8">VOCO</text>
    <text x="0" y="122" font-size="72" font-weight="700" fill="#FFFFFF">Linux dictation.</text>
    <text x="0" y="178" font-size="72" font-weight="700" fill="#FFFFFF">Local-first.</text>
    <text x="2" y="238" font-size="26" fill="#C9CCDB">Press a hotkey, speak naturally, and VOCO inserts text at the cursor.</text>
  </g>

  <path d="M246 474H956" stroke="#23263A" stroke-width="2"/>
  <path d="M246 474H458" stroke="#6C4CF5" stroke-width="2"/>

  <g transform="translate(246 500)" font-family="system-ui, -apple-system, BlinkMacSystemFont, 'Segoe UI', sans-serif">
    <text x="0" y="28" font-size="18" letter-spacing="3.5" fill="#8C90A8">TRAY-NATIVE · LOCAL ASR · WAYLAND / X11</text>
  </g>

  <defs>
    <radialGradient id="orb" cx="0" cy="0" r="1" gradientUnits="userSpaceOnUse" gradientTransform="translate(40 34) rotate(54) scale(40)">
      <stop stop-color="#FFFFFF"/>
      <stop offset="0.38" stop-color="#CFC4FF"/>
      <stop offset="1" stop-color="#6C4CF5"/>
    </radialGradient>
  </defs>
</svg>
